<?xml version="1.0" encoding="utf-8"?>
<!-- Generator: Adobe Illustrator 26.5.0, SVG Export Plug-In . SVG Version: 6.00 Build 0)  -->
<svg version="1.1" id="Layer_1" xmlns="http://www.w3.org/2000/svg" xmlns:xlink="http://www.w3.org/1999/xlink" x="0px" y="0px"
	 viewBox="0 0 349.2 89.8" style="enable-background:new 0 0 349.2 89.8;" xml:space="preserve">
<style type="text/css">
	.st0{fill:#171717;}
	.st1{fill:#272728;}
	.st2{fill:#027BFE;}
	.st3{fill:#FFFFFF;}
	.st4{fill:#007BFC;}
</style>
<g>
	<path class="st0" d="M337.1,82H27.9c-1.8,0-3.2-1.4-3.2-3.2v-71h312.5c1.8,0,3.2,1.4,3.2,3.2v67.7C340.4,80.5,338.9,82,337.1,82z"
		/>
</g>
<g>
	<g>
		<circle class="st1" cx="67.5" cy="44" r="25.3"/>
	</g>
	<g>
		<path class="st2" d="M52.1,41.2c0.7-3.2,2.5-5.7,5.1-7.7c3-2.1,6-4.3,8.9-6.4c0.9-0.6,1.7-0.7,2.5-0.1c3.2,2.4,6.6,4.5,9.7,7
			c4.3,3.4,6,9.6,3.9,14.4c-0.4,0.9-0.6,0.9-1.3,0.4c-1-0.7-2-1.4-3-2.2c-0.4-0.3-0.7-0.7-0.6-1.2c0.6-2.8-0.6-5.1-2.6-6.9
			c-1.4-1.3-3.2-2.2-4.7-3.4c-0.7-0.5-1.4-1.1-2.1-1.6c-0.3-0.2-0.5-0.4-0.8-0.1c-2.3,1.6-4.6,3.1-6.8,4.8c-4,3.2-4.1,8.2-0.3,11.6
			c1.6,1.4,3.2,2.7,5,3.9c0.9,0.6,1.7,0.7,2.5-0.1c0.6-0.6,1.2-0.5,1.8,0c1.3,1,2.6,1.9,4,2.9c-2.3,1.6-4.5,3.1-6.7,4.7
			c-0.2,0.1-0.4,0.1-0.6,0L65.9,61c-3.1-2.2-6.2-4.3-9.2-6.6c-2.3-1.8-3.8-4.2-4.5-7.1C51.9,45.4,51.7,43.1,52.1,41.2z"/>
		<path class="st2" d="M67.2,38.4c-0.4,2.5,0.8,4.2,2.6,5.5c2.7,2,5.5,4,8.3,5.9c0.5,0.3,1,0.7,1.4,1c0.5,0.4,0.5,0.7,0.1,1.2
			c-1.1,1-2.3,1.9-3.5,2.7c-0.5,0.3-0.9,0.1-1.3-0.2c-2.9-2.1-5.8-4.2-8.7-6.4c-0.4-0.3-0.8-0.5-1.1-0.8c-2.1-1.7-2.5-4.5-0.9-6.7
			C64.9,39.7,65.9,39,67.2,38.4z"/>
	</g>
</g>
<g>
	<path class="st1" d="M312,56.8H107.7c-1.5,0-2.8-1.3-2.8-2.8v-8.4c0-1.5,1.3-2.8,2.8-2.8H312c1.5,0,2.8,1.3,2.8,2.8V54
		C314.9,55.6,313.6,56.8,312,56.8z"/>
</g>
<g>
	<path class="st3" d="M104.8,35.6v-8.4h5.4v1.1h-4.1v2.5h3.8v1.1h-3.8v2.6h4.1v1.1H104.8z"/>
	<path class="st3" d="M113.5,35.6l-2.4-6.2h1.3l1.2,3.5c0.1,0.4,0.2,0.7,0.3,1.1c0.1,0.4,0.2,0.7,0.3,1.1H114
		c0.1-0.4,0.2-0.7,0.3-1.1c0.1-0.4,0.2-0.8,0.3-1.1l1.2-3.5h1.3l-2.4,6.2H113.5z"/>
	<path class="st3" d="M120.6,35.7c-0.6,0-1.1-0.1-1.6-0.4c-0.4-0.3-0.8-0.6-1-1.1c-0.2-0.5-0.4-1-0.4-1.7c0-0.6,0.1-1.2,0.4-1.7
		c0.2-0.5,0.6-0.9,1-1.1c0.4-0.3,0.9-0.4,1.5-0.4c0.4,0,0.7,0.1,1.1,0.2c0.3,0.1,0.6,0.3,0.9,0.6c0.3,0.3,0.5,0.6,0.6,1
		c0.1,0.4,0.2,0.9,0.2,1.4v0.4h-5v-0.9h4.4l-0.6,0.3c0-0.4-0.1-0.7-0.2-1c-0.1-0.3-0.3-0.5-0.5-0.7c-0.2-0.2-0.5-0.2-0.9-0.2
		s-0.6,0.1-0.9,0.2c-0.2,0.2-0.4,0.4-0.6,0.7c-0.1,0.3-0.2,0.6-0.2,0.9v0.6c0,0.4,0.1,0.8,0.2,1.1c0.1,0.3,0.3,0.5,0.6,0.7
		c0.3,0.2,0.6,0.2,0.9,0.2c0.2,0,0.5,0,0.6-0.1c0.2-0.1,0.4-0.2,0.5-0.3c0.1-0.1,0.2-0.3,0.3-0.5l1.2,0.2c-0.1,0.3-0.3,0.6-0.5,0.9
		c-0.2,0.3-0.5,0.5-0.9,0.6C121.5,35.7,121.1,35.7,120.6,35.7z"/>
	<path class="st3" d="M124.6,35.6v-6.2h1.2v1h0.1c0.1-0.3,0.3-0.6,0.6-0.8c0.3-0.2,0.6-0.3,1-0.3c0.1,0,0.2,0,0.3,0
		c0.1,0,0.2,0,0.2,0v1.2c0,0-0.1,0-0.3,0c-0.1,0-0.3,0-0.4,0c-0.3,0-0.5,0.1-0.7,0.2c-0.2,0.1-0.4,0.3-0.5,0.5
		c-0.1,0.2-0.2,0.5-0.2,0.7v3.8H124.6z"/>
	<path class="st3" d="M129.7,28.4c-0.2,0-0.4-0.1-0.5-0.2c-0.2-0.1-0.2-0.3-0.2-0.5c0-0.2,0.1-0.4,0.2-0.5c0.1-0.1,0.3-0.2,0.5-0.2
		c0.2,0,0.4,0.1,0.5,0.2c0.1,0.1,0.2,0.3,0.2,0.5c0,0.2-0.1,0.4-0.2,0.5C130.1,28.3,129.9,28.4,129.7,28.4z M129,35.6v-6.2h1.2v6.2
		H129z"/>
	<path class="st3" d="M134.6,29.4v1h-3.4v-1H134.6z M132.1,27.8h1.2v6.1c0,0.2,0.1,0.4,0.2,0.5c0.1,0.1,0.3,0.2,0.5,0.2
		c0.1,0,0.2,0,0.3,0c0.1,0,0.2,0,0.3,0l0.2,1c-0.1,0-0.3,0.1-0.4,0.1c-0.1,0-0.3,0-0.4,0c-0.6,0-1-0.1-1.3-0.4
		c-0.3-0.3-0.5-0.7-0.5-1.2V27.8z"/>
	<path class="st3" d="M138.4,35.7c-0.6,0-1.1-0.1-1.6-0.4c-0.4-0.3-0.8-0.6-1-1.1c-0.2-0.5-0.4-1-0.4-1.7c0-0.6,0.1-1.2,0.4-1.7
		c0.2-0.5,0.6-0.9,1-1.1c0.4-0.3,0.9-0.4,1.5-0.4c0.4,0,0.7,0.1,1.1,0.2c0.3,0.1,0.6,0.3,0.9,0.6c0.3,0.3,0.5,0.6,0.6,1
		c0.1,0.4,0.2,0.9,0.2,1.4v0.4h-5v-0.9h4.4l-0.6,0.3c0-0.4-0.1-0.7-0.2-1c-0.1-0.3-0.3-0.5-0.5-0.7c-0.2-0.2-0.5-0.2-0.9-0.2
		c-0.3,0-0.6,0.1-0.9,0.2c-0.2,0.2-0.4,0.4-0.6,0.7c-0.1,0.3-0.2,0.6-0.2,0.9v0.6c0,0.4,0.1,0.8,0.2,1.1c0.1,0.3,0.3,0.5,0.6,0.7
		c0.3,0.2,0.6,0.2,0.9,0.2c0.2,0,0.5,0,0.6-0.1c0.2-0.1,0.4-0.2,0.5-0.3c0.1-0.1,0.2-0.3,0.3-0.5L141,34c-0.1,0.3-0.3,0.6-0.5,0.9
		c-0.2,0.3-0.5,0.5-0.9,0.6C139.2,35.7,138.8,35.7,138.4,35.7z"/>
	<path class="st3" d="M148.3,35.7c-0.6,0-1.2-0.1-1.7-0.3c-0.5-0.2-0.8-0.5-1.1-0.9c-0.3-0.4-0.4-0.8-0.4-1.4h1.3
		c0,0.3,0.1,0.6,0.3,0.8c0.2,0.2,0.4,0.4,0.7,0.5s0.6,0.2,0.9,0.2c0.4,0,0.7-0.1,1-0.2c0.3-0.1,0.5-0.3,0.7-0.5
		c0.2-0.2,0.2-0.4,0.2-0.7c0-0.2-0.1-0.4-0.2-0.6c-0.1-0.2-0.3-0.3-0.6-0.4c-0.2-0.1-0.5-0.2-0.8-0.3l-1-0.3
		c-0.7-0.2-1.3-0.5-1.7-0.8c-0.4-0.4-0.6-0.8-0.6-1.4c0-0.5,0.1-0.9,0.4-1.3c0.3-0.4,0.6-0.6,1.1-0.8c0.4-0.2,1-0.3,1.5-0.3
		c0.6,0,1.1,0.1,1.5,0.3c0.4,0.2,0.8,0.5,1,0.8c0.2,0.4,0.4,0.8,0.4,1.2H150c0-0.4-0.2-0.7-0.5-0.9c-0.3-0.2-0.7-0.3-1.2-0.3
		c-0.3,0-0.6,0.1-0.9,0.2c-0.3,0.1-0.4,0.3-0.6,0.4c-0.1,0.2-0.2,0.4-0.2,0.6c0,0.3,0.1,0.5,0.2,0.6c0.1,0.2,0.3,0.3,0.6,0.4
		c0.2,0.1,0.5,0.2,0.7,0.2l0.8,0.2c0.3,0.1,0.6,0.2,0.9,0.3c0.3,0.1,0.6,0.3,0.8,0.5c0.2,0.2,0.4,0.4,0.6,0.7
		c0.1,0.3,0.2,0.6,0.2,0.9c0,0.5-0.1,0.9-0.4,1.3c-0.2,0.4-0.6,0.7-1.1,0.9C149.5,35.6,148.9,35.7,148.3,35.7z"/>
	<path class="st3" d="M155.5,29.4v1H152v-1H155.5z M153,27.8h1.2v6.1c0,0.2,0.1,0.4,0.2,0.5c0.1,0.1,0.3,0.2,0.5,0.2
		c0.1,0,0.2,0,0.3,0c0.1,0,0.2,0,0.3,0l0.2,1c-0.1,0-0.3,0.1-0.4,0.1c-0.1,0-0.3,0-0.4,0c-0.6,0-1-0.1-1.3-0.4
		c-0.3-0.3-0.5-0.7-0.5-1.2V27.8z"/>
	<path class="st3" d="M158.8,35.7c-0.4,0-0.8-0.1-1.1-0.3c-0.3-0.2-0.6-0.4-0.8-0.8c-0.2-0.4-0.3-0.8-0.3-1.3v-3.9h1.2v3.8
		c0,0.5,0.1,0.8,0.4,1.1c0.2,0.3,0.6,0.4,1,0.4c0.3,0,0.5-0.1,0.7-0.2c0.2-0.1,0.4-0.3,0.5-0.5c0.1-0.2,0.2-0.5,0.2-0.9v-3.7h1.2
		v6.2h-1.2l0-1.5h0.2c-0.2,0.6-0.5,1-0.8,1.2S159.3,35.7,158.8,35.7z"/>
	<path class="st3" d="M165.8,35.7c-0.5,0-1-0.1-1.4-0.4c-0.4-0.3-0.7-0.6-0.9-1.1c-0.2-0.5-0.3-1.1-0.3-1.7c0-0.7,0.1-1.2,0.3-1.7
		s0.5-0.8,0.9-1.1s0.8-0.4,1.3-0.4c0.4,0,0.7,0.1,0.9,0.2c0.2,0.1,0.4,0.3,0.6,0.4c0.1,0.2,0.3,0.3,0.3,0.5h0.1v-3.2h1.2v8.4h-1.2
		v-1h-0.1c-0.1,0.2-0.2,0.3-0.4,0.5c-0.2,0.2-0.3,0.3-0.6,0.4C166.4,35.7,166.2,35.7,165.8,35.7z M166.1,34.7c0.4,0,0.6-0.1,0.9-0.3
		c0.2-0.2,0.4-0.4,0.6-0.8c0.1-0.3,0.2-0.7,0.2-1.1c0-0.4-0.1-0.8-0.2-1.1c-0.1-0.3-0.3-0.6-0.6-0.8c-0.2-0.2-0.5-0.3-0.9-0.3
		c-0.4,0-0.6,0.1-0.9,0.3c-0.2,0.2-0.4,0.4-0.6,0.8c-0.1,0.3-0.2,0.7-0.2,1.1c0,0.4,0.1,0.8,0.2,1.1c0.1,0.3,0.3,0.6,0.6,0.8
		C165.4,34.6,165.7,34.7,166.1,34.7z"/>
	<path class="st3" d="M171.1,28.4c-0.2,0-0.4-0.1-0.5-0.2c-0.1-0.1-0.2-0.3-0.2-0.5c0-0.2,0.1-0.4,0.2-0.5c0.2-0.1,0.3-0.2,0.5-0.2
		c0.2,0,0.4,0.1,0.5,0.2c0.1,0.1,0.2,0.3,0.2,0.5c0,0.2-0.1,0.4-0.2,0.5C171.5,28.3,171.3,28.4,171.1,28.4z M170.5,35.6v-6.2h1.2
		v6.2H170.5z"/>
	<path class="st3" d="M175.9,35.7c-0.6,0-1.1-0.1-1.5-0.4s-0.8-0.6-1-1.1s-0.4-1-0.4-1.7c0-0.6,0.1-1.2,0.4-1.7s0.6-0.9,1-1.1
		c0.4-0.3,0.9-0.4,1.5-0.4c0.6,0,1.1,0.1,1.5,0.4c0.4,0.3,0.8,0.6,1,1.1c0.2,0.5,0.4,1,0.4,1.7c0,0.6-0.1,1.2-0.4,1.7
		c-0.2,0.5-0.6,0.9-1,1.1C177,35.6,176.5,35.7,175.9,35.7z M175.9,34.7c0.4,0,0.7-0.1,0.9-0.3c0.2-0.2,0.4-0.5,0.6-0.8
		c0.1-0.3,0.2-0.7,0.2-1.1c0-0.4-0.1-0.8-0.2-1.1c-0.1-0.3-0.3-0.6-0.6-0.8c-0.3-0.2-0.6-0.3-0.9-0.3s-0.7,0.1-0.9,0.3
		c-0.2,0.2-0.4,0.5-0.6,0.8c-0.1,0.3-0.2,0.7-0.2,1.1c0,0.4,0.1,0.8,0.2,1.1c0.1,0.3,0.3,0.6,0.6,0.8
		C175.3,34.6,175.6,34.7,175.9,34.7z"/>
</g>
<path class="st0" d="M9.2,7.8h16.9c0.2,0,0.4,0.2,0.4,0.4v11.9c0,0.3-0.3,0.5-0.6,0.3L9,8.5C8.7,8.3,8.9,7.8,9.2,7.8z"/>
<path class="st4" d="M190.7,31.4c-0.1-0.2-0.3-0.3-0.5-0.4c-0.1-0.1-0.2-0.2-0.1-0.4c0-0.1,0.1-0.2,0.1-0.4c0.1-0.2,0.1-0.3,0.1-0.5
	c0-0.1,0-0.2-0.1-0.2c-0.1-0.1-0.1-0.1-0.2-0.1c-0.2-0.1-0.4-0.1-0.6-0.1c-0.2-0.1-0.3-0.1-0.3-0.3c-0.1-0.2-0.1-0.4-0.1-0.6
	c-0.1-0.3-0.3-0.4-0.5-0.3c-0.2,0.1-0.4,0.1-0.6,0.2c-0.1,0-0.3,0.1-0.4,0c-0.1-0.1-0.1-0.1-0.2-0.2c-0.1-0.1-0.2-0.3-0.4-0.4
	c-0.2-0.1-0.3-0.1-0.5,0c-0.1,0.1-0.2,0.3-0.4,0.4c-0.1,0.1-0.2,0.2-0.3,0.3c-0.2,0.1-0.3,0-0.5-0.1c-0.2-0.1-0.4-0.2-0.6-0.2
	c-0.2,0-0.3,0.1-0.3,0.2c-0.1,0.2-0.1,0.4-0.1,0.6c0,0.2-0.2,0.4-0.5,0.5c-0.2,0-0.4,0.1-0.6,0.1c-0.3,0.1-0.4,0.2-0.3,0.5
	c0,0.2,0.1,0.4,0.2,0.6c0,0.2,0,0.3-0.1,0.5c-0.1,0.1-0.2,0.2-0.3,0.2c-0.1,0.1-0.2,0.2-0.3,0.3c0,0-0.1,0.1-0.1,0.2
	c0,0.2,0,0.3,0.1,0.4c0.1,0.1,0.3,0.2,0.4,0.4c0.1,0.1,0.2,0.2,0.2,0.3c0,0.1,0,0.3-0.1,0.4c-0.1,0.2-0.2,0.4-0.2,0.6
	c0,0.1,0.1,0.2,0.2,0.2c0.2,0.1,0.5,0.1,0.7,0.2c0.3,0.1,0.4,0.2,0.5,0.5c0,0.2,0.1,0.4,0.1,0.5c0,0.2,0.1,0.3,0.3,0.3
	c0.1,0,0.2,0,0.2,0c0.2-0.1,0.4-0.1,0.6-0.2c0.2-0.1,0.4,0,0.5,0.1c0.2,0.2,0.3,0.3,0.4,0.5c0.2,0.2,0.4,0.2,0.6,0
	c0.2-0.2,0.3-0.3,0.4-0.5c0.2-0.2,0.3-0.2,0.5-0.1c0.2,0.1,0.4,0.1,0.6,0.2c0.2,0.1,0.4,0,0.5-0.2c0.1-0.2,0.1-0.4,0.1-0.6
	c0-0.2,0.1-0.3,0.3-0.4c0.1,0,0.2-0.1,0.3-0.1c0.2,0,0.3,0,0.5-0.1c0.1-0.1,0.2-0.1,0.2-0.3c0-0.2-0.1-0.4-0.2-0.6
	c0-0.2-0.1-0.3-0.1-0.5c0-0.1,0.2-0.2,0.3-0.3c0.1-0.1,0.3-0.2,0.4-0.4c0,0,0.1-0.1,0.1-0.2C190.9,31.7,190.9,31.5,190.7,31.4z
	 M188.7,30.7c-0.3,0.3-0.5,0.5-0.8,0.8c0,0,0,0-0.1,0.1c0,0-0.1,0-0.1,0.1c-0.1,0-0.1,0.1-0.2,0.1c0,0,0,0,0,0c0,0,0,0,0,0
	c-0.2,0.2-0.4,0.4-0.6,0.6c-0.2,0.2-0.5,0.5-0.7,0.7c0,0,0,0-0.1,0c-0.2,0.1-0.3,0.1-0.5,0c0,0-0.1-0.1-0.1-0.1
	c-0.3-0.3-0.6-0.6-0.9-0.9c0,0-0.1-0.1-0.1-0.1c0,0,0,0,0,0c-0.1-0.1-0.1-0.2-0.1-0.3c0-0.1,0.1-0.3,0.2-0.3c0.1-0.1,0.2,0,0.3,0
	c0.2,0.1,0.3,0.3,0.5,0.5c0.1,0.1,0.2,0.2,0.3,0.3c0,0,0,0,0,0c0.1,0.1,0.1,0.1,0.2,0c0.3-0.3,0.7-0.7,1-1c0,0,0,0,0,0c0,0,0,0,0,0
	c0,0,0,0,0,0c0,0,0,0,0,0c0,0,0,0,0,0c0,0,0,0,0,0c0,0,0,0,0,0c0,0,0,0,0,0c0,0,0,0,0,0c0,0,0,0,0,0c0.3-0.2,0.5-0.5,0.8-0.7
	c0,0,0,0,0.1-0.1c0,0,0,0,0,0c0.2-0.1,0.3-0.1,0.5,0c0,0,0,0,0,0c0,0,0,0,0,0C188.8,30.4,188.8,30.6,188.7,30.7z"/>
</svg>
