<?xml version="1.0" encoding="utf-8"?>
<!-- Generator: Adobe Illustrator 26.5.0, SVG Export Plug-In . SVG Version: 6.00 Build 0)  -->
<svg version="1.1" id="Layer_1" xmlns="http://www.w3.org/2000/svg" xmlns:xlink="http://www.w3.org/1999/xlink" x="0px" y="0px"
	 viewBox="0 0 349.2 191.5" style="enable-background:new 0 0 349.2 191.5;" xml:space="preserve">
<style type="text/css">
	.st0{fill:#171717;}
	.st1{fill:#272728;}
	.st2{fill:#027BFE;}
	.st3{fill:#FFFFFF;}
	.st4{fill:#007BFC;}
</style>
<g>
	<g>
		<path class="st0" d="M229.6,65h-208c-1.2,0-2.2-0.9-2.2-2.2V15.1h210.2c1.2,0,2.2,0.9,2.2,2.2v45.5C231.9,63.9,230.8,65,229.6,65z
			"/>
	</g>
	<g>
		<g>
			<circle class="st1" cx="48.3" cy="40.8" r="17"/>
		</g>
		<g>
			<path class="st2" d="M37.9,38.9c0.5-2.2,1.7-3.8,3.4-5.2c2-1.4,4-2.9,6-4.3C48,29,48.5,29,49,29.4c2.2,1.6,4.4,3,6.5,4.7
				c2.9,2.3,4,6.5,2.6,9.7c-0.3,0.6-0.4,0.6-0.9,0.3c-0.7-0.5-1.3-0.9-2-1.5c-0.3-0.2-0.5-0.5-0.4-0.8c0.4-1.9-0.4-3.4-1.7-4.6
				c-0.9-0.9-2.2-1.5-3.2-2.3c-0.5-0.3-0.9-0.7-1.4-1.1c-0.2-0.1-0.3-0.3-0.5-0.1c-1.5,1.1-3.1,2.1-4.6,3.2
				c-2.7,2.2-2.8,5.5-0.2,7.8c1.1,0.9,2.2,1.8,3.4,2.6c0.6,0.4,1.1,0.5,1.7-0.1c0.4-0.4,0.8-0.3,1.2,0c0.9,0.7,1.7,1.3,2.7,2
				c-1.5,1.1-3,2.1-4.5,3.2c-0.1,0.1-0.3,0.1-0.4,0l-0.1-0.1c-2.1-1.5-4.2-2.9-6.2-4.4c-1.5-1.2-2.6-2.8-3-4.8
				C37.8,41.8,37.7,40.2,37.9,38.9z"/>
			<path class="st2" d="M48.1,37c-0.3,1.7,0.5,2.8,1.7,3.7c1.8,1.3,3.7,2.7,5.6,4c0.3,0.2,0.7,0.5,0.9,0.7c0.3,0.3,0.3,0.5,0.1,0.8
				c-0.7,0.7-1.5,1.3-2.4,1.8c-0.3,0.2-0.6,0.1-0.9-0.1c-2-1.4-3.9-2.8-5.9-4.3c-0.3-0.2-0.5-0.3-0.7-0.5c-1.4-1.1-1.7-3-0.6-4.5
				C46.5,37.9,47.2,37.4,48.1,37z"/>
		</g>
	</g>
	<g>
		<path class="st1" d="M212.7,49.4H75.3c-1,0-1.9-0.9-1.9-1.9v-5.6c0-1,0.9-1.9,1.9-1.9h137.4c1,0,1.9,0.9,1.9,1.9v5.6
			C214.7,48.6,213.8,49.4,212.7,49.4z"/>
	</g>
	<g>
		<path class="st3" d="M73.4,35.2v-5.6H77v0.7h-2.8v1.7h2.6v0.7h-2.6v1.7H77v0.7H73.4z"/>
		<path class="st3" d="M79.2,35.2L77.6,31h0.9l0.8,2.4c0.1,0.3,0.1,0.5,0.2,0.7c0.1,0.3,0.1,0.5,0.2,0.7h-0.1
			c0.1-0.3,0.1-0.5,0.2-0.7s0.1-0.5,0.2-0.7l0.8-2.4h0.9L80,35.2H79.2z"/>
		<path class="st3" d="M84,35.2c-0.4,0-0.7-0.1-1.1-0.3c-0.3-0.2-0.5-0.4-0.7-0.7c-0.1-0.3-0.3-0.7-0.3-1.1c0-0.4,0.1-0.8,0.3-1.1
			c0.1-0.3,0.4-0.6,0.7-0.7c0.3-0.2,0.6-0.3,1-0.3c0.3,0,0.5,0.1,0.7,0.1c0.2,0.1,0.4,0.2,0.6,0.4s0.3,0.4,0.4,0.7
			c0.1,0.3,0.1,0.6,0.1,0.9v0.3h-3.4v-0.6h3L85,32.9c0-0.3-0.1-0.5-0.1-0.7c-0.1-0.2-0.2-0.3-0.3-0.5c-0.1-0.1-0.3-0.1-0.6-0.1
			s-0.4,0.1-0.6,0.1c-0.1,0.1-0.3,0.3-0.4,0.5c-0.1,0.2-0.1,0.4-0.1,0.6v0.4c0,0.3,0.1,0.5,0.1,0.7c0.1,0.2,0.2,0.3,0.4,0.5
			c0.2,0.1,0.4,0.1,0.6,0.1c0.1,0,0.3,0,0.4-0.1c0.1-0.1,0.3-0.1,0.3-0.2c0.1-0.1,0.1-0.2,0.2-0.3l0.8,0.1c-0.1,0.2-0.2,0.4-0.3,0.6
			c-0.1,0.2-0.3,0.3-0.6,0.4C84.6,35.2,84.3,35.2,84,35.2z"/>
		<path class="st3" d="M86.7,35.2V31h0.8v0.7h0.1c0.1-0.2,0.2-0.4,0.4-0.5c0.2-0.1,0.4-0.2,0.7-0.2c0.1,0,0.1,0,0.2,0s0.1,0,0.1,0
			v0.8c0,0-0.1,0-0.2,0c-0.1,0-0.2,0-0.3,0c-0.2,0-0.3,0.1-0.5,0.1c-0.1,0.1-0.3,0.2-0.3,0.3c-0.1,0.1-0.1,0.3-0.1,0.5v2.6
			L86.7,35.2L86.7,35.2z"/>
		<path class="st3" d="M90.1,30.3c-0.1,0-0.3-0.1-0.3-0.1c-0.1-0.1-0.1-0.2-0.1-0.3c0-0.1,0.1-0.3,0.1-0.3c0.1-0.1,0.2-0.1,0.3-0.1
			c0.1,0,0.3,0.1,0.3,0.1c0.1,0.1,0.1,0.2,0.1,0.3c0,0.1-0.1,0.3-0.1,0.3S90.3,30.3,90.1,30.3z M89.7,35.2V31h0.8v4.2H89.7z"/>
		<path class="st3" d="M93.4,31v0.7h-2.3V31H93.4z M91.7,29.9h0.8V34c0,0.1,0.1,0.3,0.1,0.3c0.1,0.1,0.2,0.1,0.3,0.1
			c0.1,0,0.1,0,0.2,0c0.1,0,0.1,0,0.2,0l0.1,0.7c-0.1,0-0.2,0.1-0.3,0.1c-0.1,0-0.2,0-0.3,0c-0.4,0-0.7-0.1-0.9-0.3
			s-0.3-0.5-0.3-0.8L91.7,29.9L91.7,29.9z"/>
		<path class="st3" d="M96,35.2c-0.4,0-0.7-0.1-1.1-0.3c-0.3-0.2-0.5-0.4-0.7-0.7c-0.1-0.3-0.3-0.7-0.3-1.1c0-0.4,0.1-0.8,0.3-1.1
			c0.1-0.3,0.4-0.6,0.7-0.7c0.3-0.2,0.6-0.3,1-0.3c0.3,0,0.5,0.1,0.7,0.1c0.2,0.1,0.4,0.2,0.6,0.4s0.3,0.4,0.4,0.7
			c0.1,0.3,0.1,0.6,0.1,0.9v0.3h-3.4v-0.6h3L97,32.9c0-0.3-0.1-0.5-0.1-0.7c-0.1-0.2-0.2-0.3-0.3-0.5c-0.1-0.1-0.3-0.1-0.6-0.1
			c-0.2,0-0.4,0.1-0.6,0.1c-0.1,0.1-0.3,0.3-0.4,0.5c-0.1,0.2-0.1,0.4-0.1,0.6v0.4c0,0.3,0.1,0.5,0.1,0.7c0.1,0.2,0.2,0.3,0.4,0.5
			c0.2,0.1,0.4,0.1,0.6,0.1c0.1,0,0.3,0,0.4-0.1c0.1-0.1,0.3-0.1,0.3-0.2c0.1-0.1,0.1-0.2,0.2-0.3l0.9,0.1c-0.1,0.2-0.2,0.4-0.3,0.6
			c-0.1,0.2-0.3,0.3-0.6,0.4C96.5,35.2,96.3,35.2,96,35.2z"/>
		<path class="st3" d="M102.6,35.2c-0.4,0-0.8-0.1-1.1-0.2c-0.3-0.1-0.5-0.3-0.7-0.6c-0.2-0.3-0.3-0.5-0.3-0.9h0.9
			c0,0.2,0.1,0.4,0.2,0.5c0.1,0.1,0.3,0.3,0.5,0.3c0.2,0.1,0.4,0.1,0.6,0.1c0.3,0,0.5-0.1,0.7-0.1s0.3-0.2,0.5-0.3
			c0.1-0.1,0.1-0.3,0.1-0.5c0-0.1-0.1-0.3-0.1-0.4c-0.1-0.1-0.2-0.2-0.4-0.3c-0.1-0.1-0.3-0.1-0.5-0.2l-0.7-0.2
			c-0.5-0.1-0.9-0.3-1.1-0.5c-0.3-0.3-0.4-0.5-0.4-0.9c0-0.3,0.1-0.6,0.3-0.9c0.2-0.3,0.4-0.4,0.7-0.5c0.3-0.1,0.7-0.2,1-0.2
			c0.4,0,0.7,0.1,1,0.2c0.3,0.1,0.5,0.3,0.7,0.5c0.1,0.3,0.3,0.5,0.3,0.8h-0.8c0-0.3-0.1-0.5-0.3-0.6s-0.5-0.2-0.8-0.2
			c-0.2,0-0.4,0.1-0.6,0.1s-0.3,0.2-0.4,0.3c-0.1,0.1-0.1,0.3-0.1,0.4c0,0.2,0.1,0.3,0.1,0.4c0.1,0.1,0.2,0.2,0.4,0.3
			c0.1,0.1,0.3,0.1,0.5,0.1l0.5,0.1c0.2,0.1,0.4,0.1,0.6,0.2c0.2,0.1,0.4,0.2,0.5,0.3c0.1,0.1,0.3,0.3,0.4,0.5
			c0.1,0.2,0.1,0.4,0.1,0.6c0,0.3-0.1,0.6-0.3,0.9c-0.1,0.3-0.4,0.5-0.7,0.6C103.5,35.2,103,35.2,102.6,35.2z"/>
		<path class="st3" d="M107.5,31v0.7h-2.4V31H107.5z M105.8,29.9h0.8V34c0,0.1,0.1,0.3,0.1,0.3c0.1,0.1,0.2,0.1,0.3,0.1
			c0.1,0,0.1,0,0.2,0c0.1,0,0.1,0,0.2,0l0.1,0.7c-0.1,0-0.2,0.1-0.3,0.1c-0.1,0-0.2,0-0.3,0c-0.4,0-0.7-0.1-0.9-0.3
			s-0.3-0.5-0.3-0.8L105.8,29.9L105.8,29.9z"/>
		<path class="st3" d="M109.7,35.2c-0.3,0-0.5-0.1-0.7-0.2c-0.2-0.1-0.4-0.3-0.5-0.5c-0.1-0.3-0.2-0.5-0.2-0.9V31h0.8v2.6
			c0,0.3,0.1,0.5,0.3,0.7c0.1,0.2,0.4,0.3,0.7,0.3c0.2,0,0.3-0.1,0.5-0.1c0.1-0.1,0.3-0.2,0.3-0.3c0.1-0.1,0.1-0.3,0.1-0.6V31h0.8
			v4.2h-0.8v-1h0.1c-0.1,0.4-0.3,0.7-0.5,0.8S110,35.2,109.7,35.2z"/>
		<path class="st3" d="M114.4,35.2c-0.3,0-0.7-0.1-0.9-0.3c-0.3-0.2-0.5-0.4-0.6-0.7c-0.1-0.3-0.2-0.7-0.2-1.1
			c0-0.5,0.1-0.8,0.2-1.1c0.1-0.3,0.3-0.5,0.6-0.7c0.3-0.2,0.5-0.3,0.9-0.3c0.3,0,0.5,0.1,0.6,0.1c0.1,0.1,0.3,0.2,0.4,0.3
			c0.1,0.1,0.2,0.2,0.2,0.3h0.1v-2.2h0.8v5.6h-0.8v-0.7h-0.1c-0.1,0.1-0.1,0.2-0.3,0.3c-0.1,0.1-0.2,0.2-0.4,0.3
			C114.8,35.2,114.7,35.2,114.4,35.2z M114.6,34.6c0.3,0,0.4-0.1,0.6-0.2c0.1-0.1,0.3-0.3,0.4-0.5c0.1-0.2,0.1-0.5,0.1-0.7
			c0-0.3-0.1-0.5-0.1-0.7c-0.1-0.2-0.2-0.4-0.4-0.5c-0.1-0.1-0.3-0.2-0.6-0.2s-0.4,0.1-0.6,0.2c-0.1,0.1-0.3,0.3-0.4,0.5
			c-0.1,0.2-0.1,0.5-0.1,0.7c0,0.3,0.1,0.5,0.1,0.7c0.1,0.2,0.2,0.4,0.4,0.5C114.1,34.5,114.3,34.6,114.6,34.6z"/>
		<path class="st3" d="M118,30.3c-0.1,0-0.3-0.1-0.3-0.1c-0.1-0.1-0.1-0.2-0.1-0.3c0-0.1,0.1-0.3,0.1-0.3c0.1-0.1,0.2-0.1,0.3-0.1
			c0.1,0,0.3,0.1,0.3,0.1c0.1,0.1,0.1,0.2,0.1,0.3c0,0.1-0.1,0.3-0.1,0.3C118.2,30.3,118.1,30.3,118,30.3z M117.6,35.2V31h0.8v4.2
			H117.6z"/>
		<path class="st3" d="M121.2,35.2c-0.4,0-0.7-0.1-1-0.3s-0.5-0.4-0.7-0.7c-0.1-0.3-0.3-0.7-0.3-1.1c0-0.4,0.1-0.8,0.3-1.1
			c0.2-0.3,0.4-0.6,0.7-0.7c0.3-0.2,0.6-0.3,1-0.3s0.7,0.1,1,0.3c0.3,0.2,0.5,0.4,0.7,0.7c0.1,0.3,0.3,0.7,0.3,1.1
			c0,0.4-0.1,0.8-0.3,1.1c-0.1,0.3-0.4,0.6-0.7,0.7C121.9,35.2,121.6,35.2,121.2,35.2z M121.2,34.6c0.3,0,0.5-0.1,0.6-0.2
			c0.1-0.1,0.3-0.3,0.4-0.5c0.1-0.2,0.1-0.5,0.1-0.7c0-0.3-0.1-0.5-0.1-0.7c-0.1-0.2-0.2-0.4-0.4-0.5c-0.2-0.1-0.4-0.2-0.6-0.2
			c-0.2,0-0.5,0.1-0.6,0.2c-0.1,0.1-0.3,0.3-0.4,0.5c-0.1,0.2-0.1,0.5-0.1,0.7c0,0.3,0.1,0.5,0.1,0.7c0.1,0.2,0.2,0.4,0.4,0.5
			C120.8,34.5,121,34.6,121.2,34.6z"/>
	</g>
	<path class="st0" d="M9.1,15.1h11.4c0.1,0,0.3,0.1,0.3,0.3v8c0,0.2-0.2,0.3-0.4,0.2L9,15.5C8.7,15.4,8.9,15.1,9.1,15.1z"/>
	<path class="st4" d="M131.2,32.3c-0.1-0.1-0.2-0.2-0.3-0.3c-0.1-0.1-0.1-0.1-0.1-0.3c0-0.1,0.1-0.1,0.1-0.3
		c0.1-0.1,0.1-0.2,0.1-0.3c0-0.1,0-0.1-0.1-0.1c-0.1-0.1-0.1-0.1-0.1-0.1c-0.1-0.1-0.3-0.1-0.4-0.1c-0.1-0.1-0.2-0.1-0.2-0.2
		c-0.1-0.1-0.1-0.3-0.1-0.4c-0.1-0.2-0.2-0.3-0.3-0.2c-0.1,0.1-0.3,0.1-0.4,0.1c-0.1,0-0.2,0.1-0.3,0c-0.1-0.1-0.1-0.1-0.1-0.1
		s-0.1-0.2-0.3-0.3c-0.1-0.1-0.2-0.1-0.3,0c-0.1,0.1-0.1,0.2-0.3,0.3c-0.1,0.1-0.1,0.1-0.2,0.2c-0.1,0.1-0.2,0-0.3-0.1
		c-0.1-0.1-0.3-0.1-0.4-0.1s-0.2,0.1-0.2,0.1c-0.1,0.1-0.1,0.3-0.1,0.4c0,0.1-0.1,0.3-0.3,0.3c-0.1,0-0.3,0.1-0.4,0.1
		c-0.2,0.1-0.3,0.1-0.2,0.3c0,0.1,0.1,0.3,0.1,0.4c0,0.1,0,0.2-0.1,0.3c-0.1,0.1-0.1,0.1-0.2,0.1c-0.1,0.1-0.1,0.1-0.2,0.2
		c0,0-0.1,0.1-0.1,0.1c0,0.1,0,0.2,0.1,0.3c0.1,0.1,0.2,0.1,0.3,0.3c0.1,0.1,0.1,0.1,0.1,0.2c0,0.1,0,0.2-0.1,0.3
		c-0.1,0.1-0.1,0.3-0.1,0.4c0,0.1,0.1,0.1,0.1,0.1c0.1,0.1,0.3,0.1,0.5,0.1c0.2,0.1,0.3,0.1,0.3,0.3c0,0.1,0.1,0.3,0.1,0.3
		c0,0.1,0.1,0.2,0.2,0.2c0.1,0,0.1,0,0.1,0c0.1-0.1,0.3-0.1,0.4-0.1c0.1-0.1,0.3,0,0.3,0.1c0.1,0.1,0.2,0.2,0.3,0.3
		c0.1,0.1,0.3,0.1,0.4,0s0.2-0.2,0.3-0.3c0.1-0.1,0.2-0.1,0.3-0.1c0.1,0.1,0.3,0.1,0.4,0.1s0.3,0,0.3-0.1c0.1-0.1,0.1-0.3,0.1-0.4
		c0-0.1,0.1-0.2,0.2-0.3c0.1,0,0.1-0.1,0.2-0.1c0.1,0,0.2,0,0.3-0.1c0.1-0.1,0.1-0.1,0.1-0.2s-0.1-0.3-0.1-0.4
		c0-0.1-0.1-0.2-0.1-0.3c0-0.1,0.1-0.1,0.2-0.2c0.1-0.1,0.2-0.1,0.3-0.3c0,0,0.1-0.1,0.1-0.1C131.3,32.5,131.3,32.4,131.2,32.3z
		 M129.8,31.9c-0.2,0.2-0.3,0.3-0.5,0.5c0,0,0,0-0.1,0.1c0,0-0.1,0-0.1,0.1c-0.1,0-0.1,0.1-0.1,0.1l0,0l0,0
		c-0.1,0.1-0.3,0.3-0.4,0.4c-0.1,0.1-0.3,0.3-0.5,0.5c0,0,0,0-0.1,0c-0.1,0.1-0.2,0.1-0.3,0l-0.1-0.1c-0.2-0.2-0.4-0.4-0.6-0.6
		l-0.1-0.1l0,0c-0.1-0.1-0.1-0.1-0.1-0.2s0.1-0.2,0.1-0.2c0.1-0.1,0.1,0,0.2,0c0.1,0.1,0.2,0.2,0.3,0.3c0.1,0.1,0.1,0.1,0.2,0.2l0,0
		c0.1,0.1,0.1,0.1,0.1,0c0.2-0.2,0.5-0.5,0.7-0.7l0,0l0,0l0,0l0,0l0,0l0,0l0,0l0,0l0,0l0,0c0.2-0.1,0.3-0.3,0.5-0.5c0,0,0,0,0.1-0.1
		l0,0c0.1-0.1,0.2-0.1,0.3,0l0,0l0,0C129.9,31.7,129.9,31.8,129.8,31.9z"/>
</g>
</svg>
