<?xml version="1.0" encoding="utf-8"?>
<!-- Generator: Adobe Illustrator 26.5.0, SVG Export Plug-In . SVG Version: 6.00 Build 0)  -->
<svg version="1.1" id="Layer_1" xmlns="http://www.w3.org/2000/svg" xmlns:xlink="http://www.w3.org/1999/xlink" x="0px" y="0px"
	 viewBox="0 0 249.3 247.6" style="enable-background:new 0 0 249.3 247.6;" xml:space="preserve">
<style type="text/css">
	.st0{fill:#2C2C2C;}
	.st1{fill:#171717;}
	.st2{fill:#027BFE;}
	.st3{fill:#757575;}
	.st4{fill:none;stroke:#27CFFC;stroke-width:1.5;stroke-linecap:round;stroke-miterlimit:10;}
	.st5{fill:none;stroke:#27CFFC;stroke-width:1.5;stroke-miterlimit:10;}
	.st6{fill:#FFFFFF;}
	.st7{fill:#007BFC;}
	.st8{fill:#414141;}
	.st9{fill:#7E7E7E;}
</style>
<g>
	<path class="st0" d="M235.3,243.8H14c-5.1,0-9.3-4.2-9.3-9.3V13.1C4.7,8,8.8,3.8,14,3.8h221.4c5.1,0,9.3,4.2,9.3,9.3v221.4
		C244.7,239.7,240.5,243.8,235.3,243.8z"/>
	<g>
		<g>
			<g>
				<circle class="st1" cx="36.7" cy="92.9" r="21.4"/>
			</g>
			<g>
				<path class="st2" d="M23.7,90.6c0.6-2.7,2.1-4.8,4.3-6.5c2.5-1.8,5.1-3.6,7.5-5.4c0.8-0.5,1.4-0.6,2.1-0.1
					c2.7,2,5.6,3.8,8.2,5.9c3.6,2.9,5.1,8.1,3.3,12.2c-0.3,0.8-0.5,0.8-1.1,0.3c-0.8-0.6-1.7-1.2-2.5-1.9c-0.3-0.3-0.6-0.6-0.5-1
					c0.5-2.4-0.5-4.3-2.2-5.8c-1.2-1.1-2.7-1.9-4-2.9c-0.6-0.4-1.2-0.9-1.8-1.4c-0.3-0.2-0.4-0.3-0.7-0.1c-1.9,1.4-3.9,2.6-5.7,4.1
					c-3.4,2.7-3.5,6.9-0.3,9.8c1.4,1.2,2.7,2.3,4.2,3.3c0.8,0.5,1.4,0.6,2.1-0.1c0.5-0.5,1-0.4,1.5,0c1.1,0.8,2.2,1.6,3.4,2.4
					c-1.9,1.4-3.8,2.6-5.7,4c-0.2,0.1-0.3,0.1-0.5,0l-0.1-0.2c-2.6-1.9-5.2-3.6-7.8-5.6c-1.9-1.5-3.2-3.5-3.8-6
					C23.5,94.1,23.3,92.2,23.7,90.6z"/>
				<path class="st2" d="M36.4,88.2c-0.3,2.1,0.7,3.5,2.2,4.6c2.3,1.7,4.6,3.4,7,5c0.4,0.3,0.8,0.6,1.2,0.8c0.4,0.3,0.4,0.6,0.1,1
					c-0.9,0.8-1.9,1.6-3,2.3c-0.4,0.3-0.8,0.1-1.1-0.2c-2.4-1.8-4.9-3.5-7.3-5.4c-0.3-0.3-0.7-0.4-0.9-0.7c-1.8-1.4-2.1-3.8-0.8-5.7
					C34.5,89.3,35.3,88.7,36.4,88.2z"/>
			</g>
		</g>
		<path class="st3" d="M231.7,105.5H93.5c-1.3,0-2.3-1-2.3-2.3v-6c0-1.3,1-2.3,2.3-2.3h138.3c1.3,0,2.3,1,2.3,2.3v6
			C234,104.5,233,105.5,231.7,105.5z"/>
		<polyline class="st4" points="72.9,102.3 75.7,104.8 82.5,96.5 		"/>
		<polyline class="st5" points="78.6,103.5 80,104.8 83.8,100.1 		"/>
		<line class="st4" x1="86.9" y1="96.5" x2="83.8" y2="100.1"/>
		<g>
			<path class="st6" d="M72.9,88.6V77.2h7.3v1.5h-5.5v3.4h5.1v1.5h-5.1v3.5h5.5v1.5H72.9z"/>
			<path class="st6" d="M84.7,88.6l-3.2-8.4h1.8l1.6,4.7c0.1,0.5,0.3,0.9,0.4,1.5c0.1,0.5,0.3,0.9,0.4,1.5h-0.3
				c0.1-0.5,0.3-0.9,0.4-1.5c0.1-0.5,0.3-1.1,0.4-1.5l1.6-4.7h1.8l-3.2,8.4H84.7z"/>
			<path class="st6" d="M94.3,88.7c-0.8,0-1.5-0.1-2.2-0.5c-0.5-0.4-1.1-0.8-1.4-1.5s-0.5-1.4-0.5-2.3c0-0.8,0.1-1.6,0.5-2.3
				c0.3-0.7,0.8-1.2,1.4-1.5c0.5-0.4,1.2-0.5,2-0.5c0.5,0,0.9,0.1,1.5,0.3c0.4,0.1,0.8,0.4,1.2,0.8c0.4,0.4,0.7,0.8,0.8,1.4
				c0.1,0.5,0.3,1.2,0.3,1.9v0.5h-6.8v-1.2h5.9l-0.8,0.4c0-0.5-0.1-0.9-0.3-1.4c-0.1-0.4-0.4-0.7-0.7-0.9c-0.3-0.3-0.7-0.3-1.2-0.3
				s-0.8,0.1-1.2,0.3c-0.3,0.3-0.5,0.5-0.8,0.9c-0.1,0.4-0.3,0.8-0.3,1.2v0.8c0,0.5,0.1,1.1,0.3,1.5c0.1,0.4,0.4,0.7,0.8,0.9
				c0.4,0.3,0.8,0.3,1.2,0.3c0.3,0,0.7,0,0.8-0.1c0.3-0.1,0.5-0.3,0.7-0.4c0.1-0.1,0.3-0.4,0.4-0.7l1.6,0.3
				c-0.1,0.4-0.4,0.8-0.7,1.2c-0.3,0.4-0.7,0.7-1.2,0.8C95.5,88.7,94.9,88.7,94.3,88.7z"/>
			<path class="st6" d="M99.7,88.6v-8.4h1.6v1.4h0.1c0.1-0.4,0.4-0.8,0.8-1.1c0.4-0.3,0.8-0.4,1.4-0.4c0.1,0,0.3,0,0.4,0
				c0.1,0,0.3,0,0.3,0v1.6c0,0-0.1,0-0.4,0c-0.1,0-0.4,0-0.5,0c-0.4,0-0.7,0.1-0.9,0.3c-0.3,0.1-0.5,0.4-0.7,0.7
				c-0.1,0.3-0.3,0.7-0.3,0.9v5.1h-1.8V88.6z"/>
			<path class="st6" d="M106.6,78.9c-0.3,0-0.5-0.1-0.7-0.3c-0.3-0.1-0.3-0.4-0.3-0.7s0.1-0.5,0.3-0.7c0.1-0.1,0.4-0.3,0.7-0.3
				s0.5,0.1,0.7,0.3s0.3,0.4,0.3,0.7s-0.1,0.5-0.3,0.7S106.8,78.9,106.6,78.9z M105.6,88.6v-8.4h1.6v8.4H105.6z"/>
			<path class="st6" d="M113.2,80.2v1.4h-4.6v-1.4H113.2z M109.8,78h1.6v8.2c0,0.3,0.1,0.5,0.3,0.7c0.1,0.1,0.4,0.3,0.7,0.3
				c0.1,0,0.3,0,0.4,0c0.1,0,0.3,0,0.4,0l0.3,1.4c-0.1,0-0.4,0.1-0.5,0.1c-0.1,0-0.4,0-0.5,0c-0.8,0-1.4-0.1-1.8-0.5
				c-0.4-0.4-0.7-0.9-0.7-1.6V78H109.8z"/>
			<path class="st6" d="M118.3,88.7c-0.8,0-1.5-0.1-2.2-0.5c-0.5-0.4-1.1-0.8-1.4-1.5c-0.3-0.7-0.5-1.4-0.5-2.3
				c0-0.8,0.1-1.6,0.5-2.3c0.3-0.7,0.8-1.2,1.4-1.5c0.5-0.4,1.2-0.5,2-0.5c0.5,0,0.9,0.1,1.5,0.3c0.4,0.1,0.8,0.4,1.2,0.8
				c0.4,0.4,0.7,0.8,0.8,1.4s0.3,1.2,0.3,1.9v0.5h-6.8v-1.2h5.9l-0.8,0.4c0-0.5-0.1-0.9-0.3-1.4c-0.1-0.4-0.4-0.7-0.7-0.9
				c-0.3-0.3-0.7-0.3-1.2-0.3c-0.4,0-0.8,0.1-1.2,0.3c-0.3,0.3-0.5,0.5-0.8,0.9c-0.1,0.4-0.3,0.8-0.3,1.2v0.8c0,0.5,0.1,1.1,0.3,1.5
				c0.1,0.4,0.4,0.7,0.8,0.9s0.8,0.3,1.2,0.3c0.3,0,0.7,0,0.8-0.1c0.3-0.1,0.5-0.3,0.7-0.4c0.1-0.1,0.3-0.4,0.4-0.7l1.8,0.1
				c-0.1,0.4-0.4,0.8-0.7,1.2c-0.3,0.4-0.7,0.7-1.2,0.8C119.4,88.7,118.9,88.7,118.3,88.7z"/>
			<path class="st6" d="M131.7,88.7c-0.8,0-1.6-0.1-2.3-0.4s-1.1-0.7-1.5-1.2c-0.4-0.5-0.5-1.1-0.5-1.9h1.8c0,0.4,0.1,0.8,0.4,1.1
				c0.3,0.3,0.5,0.5,0.9,0.7c0.4,0.1,0.8,0.3,1.2,0.3c0.5,0,0.9-0.1,1.4-0.3c0.4-0.1,0.7-0.4,0.9-0.7c0.3-0.3,0.3-0.5,0.3-0.9
				c0-0.3-0.1-0.5-0.3-0.8c-0.1-0.3-0.4-0.4-0.8-0.5c-0.3-0.1-0.7-0.3-1.1-0.4l-1.4-0.4c-0.9-0.3-1.8-0.7-2.3-1.1
				c-0.5-0.5-0.8-1.1-0.8-1.9c0-0.7,0.1-1.2,0.5-1.8c0.4-0.5,0.8-0.8,1.5-1.1c0.5-0.3,1.4-0.4,2-0.4c0.8,0,1.5,0.1,2,0.4
				c0.5,0.3,1.1,0.7,1.4,1.1c0.3,0.5,0.5,1.1,0.5,1.6H134c0-0.5-0.3-0.9-0.7-1.2c-0.4-0.3-0.9-0.4-1.6-0.4c-0.4,0-0.8,0.1-1.2,0.3
				s-0.5,0.4-0.8,0.5c-0.1,0.3-0.3,0.5-0.3,0.8c0,0.4,0.1,0.7,0.3,0.8c0.1,0.3,0.4,0.4,0.8,0.5c0.3,0.1,0.7,0.3,0.9,0.3l1.1,0.3
				c0.4,0.1,0.8,0.3,1.2,0.4c0.4,0.1,0.8,0.4,1.1,0.7c0.3,0.3,0.5,0.5,0.8,0.9c0.1,0.4,0.3,0.8,0.3,1.2c0,0.7-0.1,1.2-0.5,1.8
				c-0.3,0.5-0.8,0.9-1.5,1.2C133.3,88.6,132.5,88.7,131.7,88.7z"/>
			<path class="st6" d="M141.4,80.2v1.4h-4.7v-1.4H141.4z M138.1,78h1.6v8.2c0,0.3,0.1,0.5,0.3,0.7c0.1,0.1,0.4,0.3,0.7,0.3
				c0.1,0,0.3,0,0.4,0s0.3,0,0.4,0l0.3,1.4c-0.1,0-0.4,0.1-0.5,0.1c-0.1,0-0.4,0-0.5,0c-0.8,0-1.4-0.1-1.8-0.5
				c-0.4-0.4-0.7-0.9-0.7-1.6V78H138.1z"/>
			<path class="st6" d="M145.9,88.7c-0.5,0-1.1-0.1-1.5-0.4c-0.4-0.3-0.8-0.5-1.1-1.1c-0.3-0.5-0.4-1.1-0.4-1.8v-5.3h1.6v5.1
				c0,0.7,0.1,1.1,0.5,1.5c0.3,0.4,0.8,0.5,1.4,0.5c0.4,0,0.7-0.1,0.9-0.3c0.3-0.1,0.5-0.4,0.7-0.7s0.3-0.7,0.3-1.2v-5h1.6v8.4h-1.6
				v-2h0.3c-0.3,0.8-0.7,1.4-1.1,1.6C147.1,88.4,146.6,88.7,145.9,88.7z"/>
			<path class="st6" d="M155.4,88.7c-0.7,0-1.4-0.1-1.9-0.5c-0.5-0.4-0.9-0.8-1.2-1.5c-0.3-0.7-0.4-1.5-0.4-2.3
				c0-0.9,0.1-1.6,0.4-2.3c0.3-0.7,0.7-1.1,1.2-1.5s1.1-0.5,1.8-0.5c0.5,0,0.9,0.1,1.2,0.3c0.3,0.1,0.5,0.4,0.8,0.5
				c0.1,0.3,0.4,0.4,0.4,0.7h0.1v-4.3h1.6v11.4h-1.6v-1.4h-0.1c-0.1,0.3-0.3,0.4-0.5,0.7c-0.3,0.3-0.4,0.4-0.8,0.5
				C156.2,88.7,155.9,88.7,155.4,88.7z M155.8,87.4c0.5,0,0.8-0.1,1.2-0.4c0.3-0.3,0.5-0.5,0.8-1.1c0.1-0.4,0.3-0.9,0.3-1.5
				s-0.1-1.1-0.3-1.5c-0.1-0.4-0.4-0.8-0.8-1.1c-0.3-0.3-0.7-0.4-1.2-0.4s-0.8,0.1-1.2,0.4c-0.3,0.3-0.5,0.5-0.8,1.1
				c-0.1,0.4-0.3,0.9-0.3,1.5c0,0.5,0.1,1.1,0.3,1.5c0.1,0.4,0.4,0.8,0.8,1.1C154.8,87.2,155.2,87.4,155.8,87.4z"/>
			<path class="st6" d="M162.5,78.9c-0.3,0-0.5-0.1-0.7-0.3s-0.3-0.4-0.3-0.7s0.1-0.5,0.3-0.7c0.3-0.1,0.4-0.3,0.7-0.3
				c0.3,0,0.5,0.1,0.7,0.3s0.3,0.4,0.3,0.7s-0.1,0.5-0.3,0.7C163.1,78.7,162.8,78.9,162.5,78.9z M161.7,88.6v-8.4h1.6v8.4H161.7z"/>
			<path class="st6" d="M169,88.7c-0.8,0-1.5-0.1-2-0.5c-0.5-0.4-1.1-0.8-1.4-1.5c-0.3-0.7-0.5-1.4-0.5-2.3c0-0.8,0.1-1.6,0.5-2.3
				s0.8-1.2,1.4-1.5c0.5-0.4,1.2-0.5,2-0.5s1.5,0.1,2,0.5s1.1,0.8,1.4,1.5c0.3,0.7,0.5,1.4,0.5,2.3c0,0.8-0.1,1.6-0.5,2.3
				c-0.3,0.7-0.8,1.2-1.4,1.5C170.5,88.6,169.8,88.7,169,88.7z M169,87.4c0.5,0,0.9-0.1,1.2-0.4s0.5-0.7,0.8-1.1
				c0.1-0.4,0.3-0.9,0.3-1.5s-0.1-1.1-0.3-1.5c-0.1-0.4-0.4-0.8-0.8-1.1c-0.4-0.3-0.8-0.4-1.2-0.4s-0.9,0.1-1.2,0.4
				c-0.3,0.3-0.5,0.7-0.8,1.1c-0.1,0.4-0.3,0.9-0.3,1.5c0,0.5,0.1,1.1,0.3,1.5c0.1,0.4,0.4,0.8,0.8,1.1
				C168.2,87.2,168.6,87.4,169,87.4z"/>
		</g>
		<path class="st7" d="M187.9,82.2c-0.1-0.3-0.4-0.4-0.6-0.5c-0.1-0.1-0.3-0.3-0.1-0.5c0-0.1,0.1-0.3,0.1-0.5
			c0.1-0.3,0.1-0.4,0.1-0.6c0-0.1,0-0.3-0.1-0.3c-0.1-0.1-0.1-0.1-0.3-0.1c-0.3-0.1-0.5-0.1-0.8-0.1c-0.3-0.1-0.4-0.1-0.4-0.4
			c-0.1-0.3-0.1-0.5-0.1-0.8c-0.1-0.4-0.4-0.5-0.6-0.4c-0.3,0.1-0.5,0.1-0.8,0.3c-0.1,0-0.4,0.1-0.5,0c-0.1-0.1-0.1-0.1-0.3-0.3
			c-0.1-0.1-0.3-0.4-0.5-0.5c-0.3-0.1-0.4-0.1-0.6,0c-0.1,0.1-0.3,0.4-0.5,0.5c-0.1,0.1-0.3,0.3-0.4,0.4c-0.3,0.1-0.4,0-0.6-0.1
			c-0.3-0.1-0.5-0.3-0.8-0.3c-0.3,0-0.4,0.1-0.4,0.3c-0.1,0.3-0.1,0.5-0.1,0.8c0,0.3-0.3,0.5-0.6,0.6c-0.3,0-0.5,0.1-0.8,0.1
			c-0.4,0.1-0.5,0.3-0.4,0.6c0,0.3,0.1,0.5,0.3,0.8c0,0.3,0,0.4-0.1,0.6c-0.1,0.1-0.3,0.3-0.4,0.3c-0.1,0.1-0.3,0.3-0.4,0.4
			c0,0-0.1,0.1-0.1,0.3c0,0.3,0,0.4,0.1,0.5c0.1,0.1,0.4,0.3,0.5,0.5c0.1,0.1,0.3,0.3,0.3,0.4c0,0.1,0,0.4-0.1,0.5
			c-0.1,0.3-0.3,0.5-0.3,0.8c0,0.1,0.1,0.3,0.3,0.3c0.3,0.1,0.6,0.1,0.9,0.3c0.4,0.1,0.5,0.3,0.6,0.6c0,0.3,0.1,0.5,0.1,0.6
			c0,0.3,0.1,0.4,0.4,0.4c0.1,0,0.3,0,0.3,0c0.3-0.1,0.5-0.1,0.8-0.3c0.3-0.1,0.5,0,0.6,0.1c0.3,0.3,0.4,0.4,0.5,0.6
			c0.3,0.3,0.5,0.3,0.8,0c0.3-0.3,0.4-0.4,0.5-0.6c0.3-0.3,0.4-0.3,0.6-0.1c0.3,0.1,0.5,0.1,0.8,0.3c0.3,0.1,0.5,0,0.6-0.3
			c0.1-0.3,0.1-0.5,0.1-0.8s0.1-0.4,0.4-0.5c0.1,0,0.3-0.1,0.4-0.1c0.3,0,0.4,0,0.6-0.1c0.1-0.1,0.3-0.1,0.3-0.4
			c0-0.3-0.1-0.5-0.3-0.8c0-0.3-0.1-0.4-0.1-0.6c0-0.1,0.3-0.3,0.4-0.4c0.1-0.1,0.4-0.3,0.5-0.5c0,0,0.1-0.1,0.1-0.3
			C188.1,82.6,188.1,82.3,187.9,82.2z M185.3,81.3c-0.4,0.4-0.6,0.6-1,1c0,0,0,0-0.1,0.1c0,0-0.1,0-0.1,0.1c-0.1,0-0.1,0.1-0.3,0.1
			l0,0l0,0c-0.3,0.3-0.5,0.5-0.8,0.8c-0.3,0.3-0.6,0.6-0.9,0.9c0,0,0,0-0.1,0c-0.3,0.1-0.4,0.1-0.6,0l-0.1-0.1
			c-0.4-0.4-0.8-0.8-1.2-1.2l-0.1-0.1l0,0c-0.1-0.1-0.1-0.3-0.1-0.4c0-0.1,0.1-0.4,0.3-0.4c0.1-0.1,0.3,0,0.4,0
			c0.3,0.1,0.4,0.4,0.6,0.6c0.1,0.1,0.3,0.3,0.4,0.4l0,0c0.1,0.1,0.1,0.1,0.3,0c0.4-0.4,0.9-0.9,1.3-1.3l0,0l0,0l0,0l0,0l0,0l0,0
			l0,0l0,0l0,0l0,0c0.4-0.3,0.6-0.6,1-0.9c0,0,0,0,0.1-0.1l0,0c0.3-0.1,0.4-0.1,0.6,0l0,0l0,0C185.4,80.9,185.4,81.2,185.3,81.3z"/>
	</g>
	<path class="st3" d="M231.7,157.8H93.5c-1.3,0-2.3-1-2.3-2.3v-6c0-1.3,1-2.3,2.3-2.3h138.3c1.3,0,2.3,1,2.3,2.3v6
		C234,156.8,233,157.8,231.7,157.8z"/>
	<polyline class="st4" points="72.9,154.6 75.7,157.1 82.5,148.7 	"/>
	<polyline class="st5" points="78.6,155.8 80,157.1 83.8,152.4 	"/>
	<line class="st4" x1="86.9" y1="148.7" x2="83.8" y2="152.4"/>
	<path class="st3" d="M231.7,210.1H93.5c-1.3,0-2.3-1-2.3-2.3v-6c0-1.3,1-2.3,2.3-2.3h138.3c1.3,0,2.3,1,2.3,2.3v6
		C234,209.1,233,210.1,231.7,210.1z"/>
	<polyline class="st4" points="72.9,206.9 75.7,209.3 82.5,201 	"/>
	<polyline class="st5" points="78.6,208.1 80,209.3 83.8,204.7 	"/>
	<line class="st4" x1="86.9" y1="201" x2="83.8" y2="204.7"/>
	<path class="st3" d="M231.1,57h-213c-1.6,0-2.9-1.3-2.9-2.9V43.6c0-1.6,1.3-2.9,2.9-2.9h213c1.6,0,2.9,1.3,2.9,2.9v10.5
		C234,55.7,232.7,57,231.1,57z"/>
	<path class="st3" d="M150.6,193.3H75.8c-1.6,0-2.9-1.3-2.9-2.9v-6c0-1.6,1.3-2.9,2.9-2.9h74.8c1.6,0,2.9,1.3,2.9,2.9v6
		C153.5,192,152.2,193.3,150.6,193.3z"/>
	<path class="st3" d="M150.6,141H75.8c-1.6,0-2.9-1.3-2.9-2.9v-6c0-1.6,1.3-2.9,2.9-2.9h74.8c1.6,0,2.9,1.3,2.9,2.9v6
		C153.5,139.7,152.2,141,150.6,141z"/>
	<path class="st3" d="M81,28.4H18.2c-1.6,0-2.9-1.3-2.9-2.9v-5c0-1.6,1.3-2.9,2.9-2.9H81c1.6,0,2.9,1.3,2.9,2.9v5
		C83.8,27.1,82.6,28.4,81,28.4z"/>
	<g>
		<g>
			<g>
				<circle class="st8" cx="36.7" cy="145.2" r="21.4"/>
			</g>
		</g>
		<g>
			<circle class="st9" cx="36.7" cy="139.2" r="6.5"/>
			<path class="st9" d="M27.7,147.2c-1.5,0-2.6,1.5-2,3c1.7,4.4,6,7.5,10.9,7.5s9.2-3.1,10.9-7.5c0.6-1.4-0.5-3-2-3
				C39.5,147.7,33.6,147.8,27.7,147.2z"/>
		</g>
	</g>
	<g>
		<g>
			<g>
				<circle class="st8" cx="36.7" cy="197.5" r="21.4"/>
			</g>
		</g>
		<g>
			<circle class="st9" cx="36.7" cy="191.5" r="6.5"/>
			<path class="st9" d="M27.7,199.5c-1.5,0-2.6,1.5-2,3c1.7,4.4,6,7.5,10.9,7.5s9.2-3.1,10.9-7.5c0.6-1.4-0.5-3-2-3
				C39.5,200,33.6,200,27.7,199.5z"/>
		</g>
	</g>
</g>
</svg>
